<svg xmlns="http://www.w3.org/2000/svg" xmlns:xlink="http://www.w3.org/1999/xlink" viewBox="0 0 96.17 99.07"><defs><style>.cls-1{fill:url(#未命名的渐变_2);}</style><linearGradient id="未命名的渐变_2" x1="52.08" y1="45.32" x2="75.25" y2="45.32" gradientUnits="userSpaceOnUse"><stop offset="0" stop-color="#0074e1" stop-opacity="0"/><stop offset="0.19" stop-color="#0074e1" stop-opacity="0.23"/><stop offset="0.48" stop-color="#0074e1" stop-opacity="0.56"/><stop offset="0.72" stop-color="#0074e1" stop-opacity="0.8"/><stop offset="0.9" stop-color="#0074e1" stop-opacity="0.94"/><stop offset="1" stop-color="#0074e1"/></linearGradient></defs><title>资源 52</title><g id="图层_2" data-name="图层 2"><g id="图层_1-2" data-name="图层 1"><polygon class="cls-1" points="52.38 38.55 75.25 25.31 74.94 52.81 52.08 65.33 52.38 38.55"/><path d="M50.61,37.92V67.45L76.53,52.53V23.19ZM72.22,50,55.09,59.9V40.51l17.13-9.74Z"/><path d="M70,17.68l5-2.81L49.74.13A1.05,1.05,0,0,0,49.25,0a1,1,0,0,0-.48.13l-29,17a.22.22,0,0,0-.1.18V51.41a.23.23,0,0,0,.11.18L43.49,65.22v-5.7L24.59,48.67V20L49.25,5.57Z"/><polygon points="10.75 98.94 10.74 91.17 2.79 91.17 2.79 88.09 10.71 88.09 10.71 85.78 0 85.79 0.01 93.56 7.96 93.56 7.96 96.63 0.01 96.63 0.02 98.94 10.75 98.94"/><path d="M13.08,99H24.83V85.83H13.08Zm2.79-10.87H22V96.7H15.87Z"/><polygon points="36.9 91.47 29.92 91.48 29.92 88.01 37.13 88.01 37.13 85.75 27.13 85.76 27.14 98.97 29.93 98.97 29.92 93.73 36.91 93.73 36.9 91.47"/><path d="M39.88,99l1-3.11h4.48l1,3.08,2.77,0L44.9,85.8l-3.44,0,0,0L37.14,99Zm3.27-10.06,1.51,4.69h-3Z"/><path d="M66.48,90.37v8.7h8.68V90.37Zm5.89,6.44H69.26V92.63h3.11Z"/><polygon points="85.47 99.03 85.47 93.86 80.29 93.87 80.29 92.01 85.33 92.01 85.32 90.37 77.5 90.37 77.51 95.54 82.68 95.53 82.68 97.4 77.57 97.4 77.57 99.03 85.47 99.03"/><polygon points="96.17 99.06 96.17 90.42 87.79 90.42 87.79 99.07 90.58 99.06 90.58 92.68 93.38 92.68 93.38 99.07 96.17 99.06"/><polygon points="63.8 98.89 63.78 85.51 61.19 85.53 57.38 89.34 53.58 85.53 50.97 85.53 50.99 98.92 53.42 98.89 53.4 88.76 57.38 92.75 61.37 88.76 61.37 98.92 63.8 98.89"/></g></g></svg>