<svg xmlns="http://www.w3.org/2000/svg" xmlns:xlink="http://www.w3.org/1999/xlink" viewBox="0 0 121.83 99.07"><defs><style>.cls-1{fill:url(#未命名的渐变_2);}</style><linearGradient id="未命名的渐变_2" x1="59.72" y1="31.66" x2="71.89" y2="31.66" gradientUnits="userSpaceOnUse"><stop offset="0" stop-color="#0074e1" stop-opacity="0"/><stop offset="0.19" stop-color="#0074e1" stop-opacity="0.23"/><stop offset="0.48" stop-color="#0074e1" stop-opacity="0.56"/><stop offset="0.72" stop-color="#0074e1" stop-opacity="0.8"/><stop offset="0.9" stop-color="#0074e1" stop-opacity="0.94"/><stop offset="1" stop-color="#0074e1"/></linearGradient></defs><title>资源 55</title><g id="图层_2" data-name="图层 2"><g id="图层_1-2" data-name="图层 1"><polygon points="10.75 98.92 10.74 91.15 2.79 91.16 2.79 88.08 10.71 88.08 10.71 85.77 0 85.78 0.01 93.55 7.96 93.54 7.96 96.62 0.01 96.62 0.02 98.92 10.75 98.92"/><path d="M13.08,98.94H24.83V85.82H13.08Zm2.79-10.86H22v8.6H15.87Z"/><polygon points="36.9 91.45 29.92 91.46 29.92 88 37.13 88 37.13 85.74 27.13 85.74 27.14 98.96 29.93 98.95 29.92 93.72 36.91 93.72 36.9 91.45"/><path d="M39.88,99l1-3.11h4.48l1,3.09,2.77,0L44.9,85.79l-3.44,0,0,0L37.14,99Zm3.27-10,1.51,4.68h-3Z"/><polygon points="51.13 85.76 51.14 98.91 59.76 98.91 59.75 96.64 53.92 96.65 53.92 85.75 51.13 85.76"/><path d="M62,99.06h8.68v-8.7H62Zm2.78-6.45h3.11v4.18H64.75Z"/><path d="M73,90.36v8.7h8.68v-8.7Zm5.89,6.43H75.78V92.61h3.11Z"/><path d="M89.76,99h2.68l-1.75-6.8,1.48-.72s0-.05,0-.07V88.77l-5.45,2.72v-5H84V99h2.74V94.14l1.67-.82Z"/><path d="M103.06,90.35H94.38v8.7h8.68Zm-2.78,6.44H97.17V92.61h3.11Z"/><polygon points="105.42 90.38 105.42 99.02 114.07 99.02 114.06 90.37 111.27 90.38 111.28 96.76 108.2 96.76 108.2 90.37 105.42 90.38"/><polygon points="121.68 99.06 121.68 96.8 120.21 96.81 120.21 92.53 121.83 92.53 121.82 90.27 120.21 90.28 120.21 87.59 117.42 87.6 117.43 90.28 115.98 90.28 115.99 92.54 117.12 92.53 117.43 92.53 117.43 99.07 121.68 99.06"/><path d="M90.32,16.86,61,0,31,17.19v10l5,0V20.06l.19-.11L61,5.72l.19.1L85.82,20V48.67L60.67,63l-.19-.11L36,48.6V41.3l-5,0V51.44L60.65,68.69,90.8,51.55V17.69A1,1,0,0,0,90.32,16.86Z"/><path d="M75,33.42a9.35,9.35,0,0,1-2,4.25L87.61,46l.61-5Z"/><path d="M56.57,32.8l-3.65,2L34,23.64l-3,3.58L52.93,41l5.84-3.24A9.19,9.19,0,0,1,56.57,32.8Z"/><circle class="cls-1" cx="65.81" cy="31.66" r="6.08"/></g></g></svg>