<svg xmlns="http://www.w3.org/2000/svg" xmlns:xlink="http://www.w3.org/1999/xlink" viewBox="0 0 106.36 99.07"><defs><style>.cls-1{fill:url(#未命名的渐变_2);}</style><linearGradient id="未命名的渐变_2" x1="37.45" y1="33.33" x2="68.92" y2="33.33" gradientUnits="userSpaceOnUse"><stop offset="0" stop-color="#0074e1" stop-opacity="0"/><stop offset="0.19" stop-color="#0074e1" stop-opacity="0.23"/><stop offset="0.48" stop-color="#0074e1" stop-opacity="0.56"/><stop offset="0.72" stop-color="#0074e1" stop-opacity="0.8"/><stop offset="0.9" stop-color="#0074e1" stop-opacity="0.94"/><stop offset="1" stop-color="#0074e1"/></linearGradient></defs><title>资源 53</title><g id="图层_2" data-name="图层 2"><g id="图层_1-2" data-name="图层 1"><polygon points="10.75 98.91 10.74 91.14 2.79 91.14 2.79 88.06 10.71 88.06 10.71 85.75 0 85.76 0.01 93.53 7.96 93.52 7.96 96.6 0.01 96.6 0.02 98.91 10.75 98.91"/><path d="M13.08,98.93H24.83V85.8H13.08Zm2.79-10.87H22v8.61H15.87Z"/><polygon points="36.9 91.44 29.92 91.44 29.92 87.98 37.13 87.98 37.13 85.72 27.13 85.73 27.14 98.94 29.93 98.94 29.92 93.7 36.91 93.7 36.9 91.44"/><path d="M39.88,98.94l1-3.12h4.48l1,3.09,2.77,0L44.9,85.77l-3.44,0,0,0L37.14,98.94Zm3.27-10.06,1.51,4.69h-3Z"/><polygon points="58.68 85.73 47.46 85.73 47.47 87.99 51.38 87.98 51.68 87.98 51.68 98.94 54.47 98.94 54.47 87.98 58.69 87.98 58.68 85.73"/><polygon points="66 90.93 65.97 90.93 63.07 91.58 63.07 90.35 60.28 90.36 60.29 99.07 63.08 99.06 63.07 93.82 65.95 93.2 66 90.93"/><path d="M76.27,99v-8.7H67.84v1.81h5.64v1.63H67.74V99ZM70.53,95.5h3v1.77h-3Z"/><polygon points="78.63 90.38 78.64 99.02 87.19 99.02 87.19 96.75 81.42 96.76 81.42 92.63 87.19 92.63 87.19 90.37 78.63 90.38"/><path d="M89.54,90.36V99h8.73v-1.8h-6V95.46h6V90.35Zm6,3.46H92.33V92h3.19Z"/><polygon points="106.36 90.93 106.34 90.93 103.44 91.58 103.44 90.35 100.65 90.36 100.66 99.07 103.45 99.06 103.44 93.82 106.32 93.2 106.36 90.93"/><path d="M77.46,26.5a.12.12,0,0,0,.1,0l4.53,0a.14.14,0,0,0,.14-.14l.08-9.33a.92.92,0,0,0-.47-.81L53.69.12a1,1,0,0,0-.93,0L24.53,16.34a.94.94,0,0,0-.47.81v9a.14.14,0,0,0,.14.14l4.54,0a.14.14,0,0,0,.1,0,.12.12,0,0,0,0-.09V19.92a.9.9,0,0,1,.45-.78L52.78,5.67a.87.87,0,0,1,.45-.12.92.92,0,0,1,.45.12L77,19.07a.9.9,0,0,1,.46.79l0,6.54A.12.12,0,0,0,77.46,26.5Z"/><path d="M28.74,40.11l-4.54,0a.19.19,0,0,0-.1,0,.13.13,0,0,0,0,.1v9.23a1,1,0,0,0,.46.8L52.46,66.53a.91.91,0,0,0,.93,0l28.2-16.17a.92.92,0,0,0,.47-.8l.07-9.07a.14.14,0,0,0-.14-.14l-4.54,0a.14.14,0,0,0-.14.14l0,6.3a.9.9,0,0,1-.45.78L53.4,61a.92.92,0,0,1-.91,0L29.32,47.48a.92.92,0,0,1-.45-.78V40.25A.14.14,0,0,0,28.74,40.11Z"/><path class="cls-1" d="M37.8,36.7a14.75,14.75,0,0,0,2.12,5.12,15.74,15.74,0,0,0,16.64,6.89,14.63,14.63,0,0,0,5.11-2.12A15.74,15.74,0,0,0,68.56,30a14.58,14.58,0,0,0-2.11-5.12,15.7,15.7,0,0,0-13.24-7.25,16.51,16.51,0,0,0-3.4.36,14.57,14.57,0,0,0-5.12,2.12A15.73,15.73,0,0,0,37.8,36.7ZM54.6,22.5A11,11,0,0,1,64,31.91,10.94,10.94,0,0,1,53.18,44.24a11.4,11.4,0,0,1-1.42-.09,11,11,0,0,1-9.4-9.4A10.94,10.94,0,0,1,54.6,22.5Z"/><path d="M75,31.93H68.84a16.26,16.26,0,0,1,0,2.79H75a1.4,1.4,0,1,0,0-2.79Z"/><path d="M37.51,31.93H31.34a1.4,1.4,0,1,0,0,2.79h6.18A16.25,16.25,0,0,1,37.51,31.93Z"/><path d="M64,31.91a10.39,10.39,0,0,0-.28-1.37H42.65a11,11,0,0,0-.29,4.21,10.39,10.39,0,0,0,.28,1.37H63.72A11.2,11.2,0,0,0,64,31.91Z"/></g></g></svg>