<svg xmlns="http://www.w3.org/2000/svg" xmlns:xlink="http://www.w3.org/1999/xlink" viewBox="0 0 480.09 128.38"><defs><style>.cls-1,.cls-3,.cls-4,.cls-5,.cls-6,.cls-7,.cls-8,.cls-9{opacity:0.75;}.cls-1{fill:url(#未命名的渐变_5);}.cls-2{fill:#fff;}.cls-3{fill:url(#未命名的渐变_5-2);}.cls-4{fill:url(#未命名的渐变_5-3);}.cls-5{fill:url(#未命名的渐变_5-4);}.cls-6{fill:url(#未命名的渐变_5-5);}.cls-7{fill:url(#未命名的渐变_5-6);}.cls-8{fill:url(#未命名的渐变_5-7);}.cls-9{fill:url(#未命名的渐变_5-8);}</style><linearGradient id="未命名的渐变_5" x1="229.67" y1="64.07" x2="294.43" y2="64.07" gradientUnits="userSpaceOnUse"><stop offset="0" stop-color="#f2f2f2"/><stop offset="0.69" stop-color="#f0f0f0"/><stop offset="0.94" stop-color="#e9e9e9"/><stop offset="1" stop-color="#e6e6e6"/></linearGradient><linearGradient id="未命名的渐变_5-2" x1="415.33" y1="64.07" x2="480.09" y2="64.07" xlink:href="#未命名的渐变_5"/><linearGradient id="未命名的渐变_5-3" x1="291.63" y1="12.05" x2="377.86" y2="12.05" xlink:href="#未命名的渐变_5"/><linearGradient id="未命名的渐变_5-4" x1="102.93" y1="12.05" x2="178.66" y2="12.05" xlink:href="#未命名的渐变_5"/><linearGradient id="未命名的渐变_5-5" x1="102.93" y1="116.08" x2="178.66" y2="116.08" xlink:href="#未命名的渐变_5"/><linearGradient id="未命名的渐变_5-6" x1="102.93" y1="63.09" x2="171.58" y2="63.09" xlink:href="#未命名的渐变_5"/><linearGradient id="未命名的渐变_5-7" x1="34.5" y1="8.39" x2="42.83" y2="37.19" xlink:href="#未命名的渐变_5"/><linearGradient id="未命名的渐变_5-8" x1="0" y1="95.44" x2="81.87" y2="95.44" xlink:href="#未命名的渐变_5"/></defs><title>资源 2</title><g id="图层_2" data-name="图层 2"><g id="图层_1-2" data-name="图层 1"><polygon class="cls-1" points="294.43 126.52 268.35 126.52 229.67 1.61 255.75 1.61 294.43 126.52"/><polygon class="cls-2" points="190.92 126.52 217 126.52 255.69 1.61 229.61 1.61 190.92 126.52"/><polygon class="cls-3" points="480.09 126.52 454.01 126.52 415.33 1.61 441.41 1.61 480.09 126.52"/><polygon class="cls-2" points="376.58 126.52 402.66 126.52 441.34 1.61 415.26 1.61 376.58 126.52"/><rect class="cls-4" x="291.63" y="1.61" width="86.23" height="20.87"/><rect class="cls-2" x="321.7" y="1.61" width="26.08" height="124.91"/><rect class="cls-5" x="102.93" y="1.61" width="75.74" height="20.87"/><rect class="cls-6" x="102.93" y="105.65" width="75.74" height="20.87"/><rect class="cls-7" x="102.93" y="52.65" width="68.65" height="20.87"/><rect class="cls-2" x="102.93" y="1.61" width="26.08" height="124.91"/><path class="cls-8" d="M28.32,35.1q0-6.62,3.69-10.51t10.3-3.91q7,0,10.77,4.59t3.73,13.35H82a41.06,41.06,0,0,0-4.84-20.08A33.67,33.67,0,0,0,63.25,4.85,42.65,42.65,0,0,0,42.74,0Q25.49,0,14.29,9.57T3.09,34.93a33.56,33.56,0,0,0,8.24,22.61,42.23,42.23,0,0,0,7.75,6.89L31.35,43.19A12.46,12.46,0,0,1,28.32,35.1Z"/><path class="cls-9" d="M66,62.5,53.74,83.75c1.81,2.52,2.73,5.89,2.73,10.13q0,14-13.22,14-9.53,0-13.73-4.89t-4.2-15.7H0Q0,99.9,5.62,109.16A37.26,37.26,0,0,0,21.2,123.4a48.55,48.55,0,0,0,22.05,5q17.85,0,28.23-9.18T81.87,93.71q0-14.83-8.28-24.46A41.59,41.59,0,0,0,66,62.5Z"/><path class="cls-2" d="M31.35,43.19,19.08,64.43c6.47,3.76,34.3,18.82,34.66,19.32L66,62.5C59.72,59.08,31.68,43.6,31.35,43.19Z"/></g></g></svg>