<svg xmlns="http://www.w3.org/2000/svg" xmlns:xlink="http://www.w3.org/1999/xlink" viewBox="0 0 130.01 100.69"><defs><style>.cls-1{fill:url(#未命名的渐变_2);}</style><linearGradient id="未命名的渐变_2" x1="47.4" y1="29.76" x2="70.29" y2="29.76" gradientUnits="userSpaceOnUse"><stop offset="0" stop-color="#0074e1" stop-opacity="0"/><stop offset="0.19" stop-color="#0074e1" stop-opacity="0.23"/><stop offset="0.48" stop-color="#0074e1" stop-opacity="0.56"/><stop offset="0.72" stop-color="#0074e1" stop-opacity="0.8"/><stop offset="0.9" stop-color="#0074e1" stop-opacity="0.94"/><stop offset="1" stop-color="#0074e1"/></linearGradient></defs><title>资源 56</title><g id="图层_2" data-name="图层 2"><g id="图层_1-2" data-name="图层 1"><polygon class="cls-1" points="70.29 29.76 47.4 10.8 47.4 48.72 70.29 29.76"/><polygon points="42.15 23.84 42.15 59.52 87.86 59.52 87.86 0 42.15 0 42.15 10.63 47.17 10.63 47.17 5.02 82.84 5.02 82.84 54.5 47.17 54.5 47.17 23.84 42.15 23.84"/><polygon points="10.75 98.53 10.74 90.76 2.79 90.77 2.79 87.69 10.71 87.69 10.71 85.38 0 85.39 0.01 93.16 7.96 93.15 7.96 96.23 0.02 96.23 0.02 98.53 10.75 98.53"/><path d="M13.08,85.43V98.55H24.83V85.43Zm9,10.86H15.87v-8.6H22Z"/><polygon points="36.9 91.06 29.92 91.07 29.92 87.61 37.13 87.61 37.13 85.35 27.13 85.35 27.14 98.57 29.93 98.56 29.92 93.33 36.91 93.33 36.9 91.06"/><path d="M44.9,85.39l-3.44,0,0,0L37.14,98.56h2.74l1-3.11h4.48l1,3.09,2.77,0Zm-3.26,7.8,1.51-4.69,1.51,4.69Z"/><polygon points="51.18 85.47 51.19 98.52 62.78 98.51 62.77 90.75 55.59 90.75 55.6 93.01 59.99 93 59.99 96.26 53.97 96.26 53.97 87.72 62.9 87.72 62.9 85.46 51.18 85.47"/><path d="M73.92,90H65.49v1.82h5.63v1.63H65.39v5.27h8.52Zm-2.79,7H68.18V95.13h2.95Z"/><polygon points="81.54 98.67 81.53 96.41 80.06 96.42 80.06 92.14 81.68 92.14 81.68 89.88 80.06 89.89 80.06 87.2 77.27 87.2 77.28 89.89 75.84 89.89 75.84 92.15 76.97 92.14 77.28 92.14 77.28 98.68 81.54 98.67"/><path d="M83.77,90v8.67h8.74v-1.8h-6V95.08h6V90Zm6,3.47H86.56v-1.8h3.19Z"/><polygon points="101.55 93.02 103.17 98.58 106.32 98.61 108.41 90 106.15 90 104.75 96.62 102.8 90.13 100.35 90.1 98.34 96.62 97 90.02 94.7 90 96.75 98.59 99.89 98.61 101.55 93.02"/><path d="M119.08,98.66V90h-8.42v1.82h5.63v1.63h-5.74v5.27Zm-5.74-3.53h3V96.9h-3Z"/><polygon points="130.01 100.69 130.01 90.03 127.22 90.03 127.23 94.18 124.19 94.18 124.19 90.03 121.44 90.03 121.45 96.44 127.23 96.44 127.23 98.73 121.44 98.73 121.45 100.69 130.01 100.69"/></g></g></svg>