<svg xmlns="http://www.w3.org/2000/svg" xmlns:xlink="http://www.w3.org/1999/xlink" viewBox="0 0 126.77 101.07"><defs><style>.cls-1{fill:url(#未命名的渐变_2);}</style><linearGradient id="未命名的渐变_2" x1="84" y1="53.3" x2="69.45" y2="28.08" gradientUnits="userSpaceOnUse"><stop offset="0" stop-color="#0074e1" stop-opacity="0"/><stop offset="0.19" stop-color="#0074e1" stop-opacity="0.23"/><stop offset="0.48" stop-color="#0074e1" stop-opacity="0.56"/><stop offset="0.72" stop-color="#0074e1" stop-opacity="0.8"/><stop offset="0.9" stop-color="#0074e1" stop-opacity="0.94"/><stop offset="1" stop-color="#0074e1"/></linearGradient></defs><title>资源 47</title><g id="图层_2" data-name="图层 2"><g id="图层_1-2" data-name="图层 1"><polygon class="cls-1" points="63.41 32.07 63.49 65.14 89.97 49.38 89.95 16.24 63.41 32.07"/><rect x="73.88" y="27.72" width="2.77" height="25.99" transform="matrix(0.5, -0.86, 0.86, 0.5, 2.2, 85.24)"/><rect x="35.66" y="32.13" width="54.54" height="2.77" transform="translate(-8.32 36.18) rotate(-30.18)"/><rect x="61.54" y="5.73" width="2.77" height="55.71"/><circle cx="62.93" cy="33.26" r="8.17"/><circle cx="36.57" cy="48.81" r="3.77"/><circle cx="89.16" cy="49.06" r="3.77"/><circle cx="89.16" cy="17.79" r="3.77"/><circle cx="62.93" cy="3.78" r="3.78"/><circle cx="62.93" cy="63" r="3.77"/><path d="M91.64,49.37a.61.61,0,0,0,0-.14V16.94a.92.92,0,0,0-.46-.79L63.39.2a.92.92,0,0,0-.91,0L41.8,12a2.34,2.34,0,0,0-1.12,1.47,2.37,2.37,0,0,0,.26,1.82,2.4,2.4,0,0,0,3.24.85L62.94,5.44,86.87,19.18V47L62.94,61,39,47V26.37a2.39,2.39,0,0,0-4.77,0V49.23a.31.31,0,0,0,0,.1h0a.92.92,0,0,0,.45.69L62.47,66.26a.91.91,0,0,0,.93,0L91.2,50A.91.91,0,0,0,91.64,49.37Z"/><polygon points="10.75 98.86 10.74 91.09 2.79 91.1 2.79 88.02 10.71 88.02 10.71 85.71 0 85.72 0.01 93.49 7.96 93.48 7.96 96.56 0.02 96.56 0.02 98.86 10.75 98.86"/><path d="M13.08,85.76V98.88H24.83V85.76Zm9,10.86H15.87V88H22Z"/><polygon points="36.9 91.39 29.92 91.4 29.92 87.94 37.13 87.94 37.13 85.68 27.13 85.68 27.14 98.9 29.93 98.89 29.92 93.66 36.91 93.66 36.9 91.39"/><path d="M44.9,85.73l-3.44,0,0,0L37.14,98.89h2.74l1-3.11h4.48l1,3.09,2.77,0Zm-3.26,7.79,1.51-4.68,1.51,4.68Z"/><path d="M60.57,93.61h2.06v-8H51.14V98.88h2.79V93.61h3.81l2,5.23,2.88,0Zm-.73-2.26H53.92V87.91h5.92Z"/><path d="M65.55,90.32V99H74.3V97.18h-6V95.41h6v-5.1Zm6,3.46H68.34V92h3.19Z"/><path d="M85.66,101.07V90.46h-9V97h6.2v1.8H76.68v2.26Zm-6.2-6.19V92.6h3.41v2.28Z"/><rect x="88.03" y="86.16" width="2.56" height="2.4" transform="translate(-0.2 0.21) rotate(-0.13)"/><polygon points="88.03 99.08 90.59 99.07 90.59 90.33 88.02 90.33 88.03 99.08"/><polygon points="100.92 98.96 100.92 93.79 95.75 93.8 95.75 91.93 100.78 91.93 100.78 90.29 92.96 90.3 92.96 95.47 98.14 95.46 98.14 97.33 93.02 97.33 93.03 98.96 100.92 98.96"/><polygon points="108.49 99 108.49 96.74 107.02 96.75 107.02 92.47 108.64 92.47 108.63 90.21 107.02 90.22 107.02 87.53 104.23 87.54 104.24 90.22 102.79 90.22 102.8 92.48 103.93 92.47 104.24 92.47 104.24 99.01 108.49 99"/><polygon points="116.44 90.89 116.41 90.89 113.52 91.54 113.52 90.31 110.73 90.31 110.74 99.03 113.53 99.02 113.52 93.78 116.4 93.15 116.44 90.89"/><polygon points="126.77 101.02 126.77 90.36 123.98 90.36 123.99 94.52 120.94 94.52 120.94 90.36 118.2 90.36 118.21 96.78 123.99 96.77 123.99 99.07 118.2 99.07 118.21 101.02 126.77 101.02"/></g></g></svg>