<svg xmlns="http://www.w3.org/2000/svg" xmlns:xlink="http://www.w3.org/1999/xlink" viewBox="0 0 92.64 97.7"><defs><style>.cls-1{fill:url(#未命名的渐变_2);}</style><linearGradient id="未命名的渐变_2" x1="20.45" y1="18.67" x2="72.16" y2="18.67" gradientUnits="userSpaceOnUse"><stop offset="0" stop-color="#0074e1" stop-opacity="0"/><stop offset="0.19" stop-color="#0074e1" stop-opacity="0.23"/><stop offset="0.48" stop-color="#0074e1" stop-opacity="0.56"/><stop offset="0.72" stop-color="#0074e1" stop-opacity="0.8"/><stop offset="0.9" stop-color="#0074e1" stop-opacity="0.94"/><stop offset="1" stop-color="#0074e1"/></linearGradient></defs><title>资源 46</title><g id="图层_2" data-name="图层 2"><g id="图层_1-2" data-name="图层 1"><polygon class="cls-1" points="72.16 18.77 46.3 3.67 46.3 3.67 20.45 18.77 46.3 33.66 46.3 33.66 72.16 18.77"/><path d="M17.51,16.68V50.14L45.86,66.4a.94.94,0,0,0,.92,0L69.55,53.3l-4.8-2.77L48.93,59.64,49.18,32,24.77,18,46.32,5.4l24,14V40.89l4.79,2.76v-27L46.79.12a1,1,0,0,0-.94,0ZM43.44,35.33l-.23,24-20.9-12V23.15Z"/><polygon points="10.75 97.55 10.74 89.78 2.79 89.78 2.79 86.7 10.71 86.7 10.71 84.39 0 84.4 0.01 92.17 7.96 92.16 7.96 95.24 0.01 95.24 0.02 97.55 10.75 97.55"/><path d="M13.08,97.57H24.83V84.44H13.08ZM15.87,86.7H22v8.61H15.87Z"/><polygon points="36.9 90.08 29.92 90.08 29.92 86.62 37.13 86.62 37.13 84.36 27.13 84.37 27.14 97.58 29.93 97.58 29.92 92.34 36.91 92.34 36.9 90.08"/><path d="M39.88,97.58l1-3.12h4.48l1,3.09,2.77,0L44.9,84.41l-3.44,0,0,0L37.14,97.58Zm3.27-10.06,1.51,4.69h-3Z"/><path d="M62.23,89.79H61.8V85.91a.19.19,0,0,0-.06-.15l-1.42-1.42a.17.17,0,0,0-.13,0h-9V97.58h11ZM54,86.54h4.5l.51.54,0,2.72H54Zm5.43,8.78H54V92.05h5.43Z"/><path d="M65.18,89v8.7h8.68V89Zm5.89,6.44H68V91.24h3.11Z"/><path d="M84.89,89H76.21v8.7h8.68ZM82.1,95.42H79V91.24H82.1Z"/><polygon points="92.49 97.69 92.49 95.43 91.02 95.43 91.02 91.16 92.64 91.16 92.63 88.89 91.02 88.9 91.02 86.22 88.23 86.22 88.24 88.9 86.79 88.9 86.8 91.17 87.93 91.16 88.24 91.16 88.24 97.69 92.49 97.69"/></g></g></svg>