<svg xmlns="http://www.w3.org/2000/svg" xmlns:xlink="http://www.w3.org/1999/xlink" viewBox="0 0 96.52 99.07"><defs><style>.cls-1{fill:url(#未命名的渐变_2);}</style><linearGradient id="未命名的渐变_2" x1="48.28" y1="16.56" x2="48.28" y2="66.31" gradientUnits="userSpaceOnUse"><stop offset="0" stop-color="#0074e1" stop-opacity="0"/><stop offset="0.19" stop-color="#0074e1" stop-opacity="0.23"/><stop offset="0.48" stop-color="#0074e1" stop-opacity="0.56"/><stop offset="0.72" stop-color="#0074e1" stop-opacity="0.8"/><stop offset="0.9" stop-color="#0074e1" stop-opacity="0.94"/><stop offset="1" stop-color="#0074e1"/></linearGradient></defs><title>资源 48</title><g id="图层_2" data-name="图层 2"><g id="图层_1-2" data-name="图层 1"><polygon class="cls-1" points="71.36 18.39 47.8 30.26 19.41 16.84 19.41 50.25 47.43 66.31 77.16 50.28 77.16 16.56 71.36 18.39"/><path d="M48.24,33.78a.94.94,0,0,0-.48.13L19.51,50a.3.3,0,0,0-.15.25.28.28,0,0,0,.14.24L47.76,66.71a1,1,0,0,0,1,0L77,50.44a.26.26,0,0,0,.14-.24A.28.28,0,0,0,77,50l-28.26-16A.91.91,0,0,0,48.24,33.78ZM66.1,49.38a1,1,0,0,1,0,1.7l-17.36,10a1,1,0,0,1-.5.14,1.13,1.13,0,0,1-.5-.13h0l-17.36-10a1,1,0,0,1-.49-.85,1,1,0,0,1,.5-.85l17.36-9.86a1,1,0,0,1,1,0Z"/><path d="M47.76,32.93a1,1,0,0,0,1,0L77,16.89a.28.28,0,0,0,.14-.25A.26.26,0,0,0,77,16.4L48.72.13a1,1,0,0,0-1,0L43.33,2.68,66.1,15.76a1,1,0,0,1,0,1.7L48.74,27.32a1,1,0,0,1-1,0L30.39,17.46a1,1,0,0,1-.5-.85,1,1,0,0,1,.49-.85l10.4-6L35.9,7,19.5,16.4a.28.28,0,0,0-.14.24.3.3,0,0,0,.15.25Z"/><polygon points="10.75 99.05 10.74 91.28 2.79 91.28 2.79 88.21 10.71 88.21 10.71 85.9 0 85.9 0.01 93.67 7.96 93.67 7.96 96.75 0.01 96.75 0.02 99.05 10.75 99.05"/><path d="M13.08,99.05H24.83V85.93H13.08Zm2.79-10.86H22v8.6H15.87Z"/><polygon points="36.9 91.55 29.92 91.56 29.92 88.09 37.13 88.09 37.13 85.83 27.13 85.84 27.14 99.05 29.93 99.05 29.92 93.81 36.91 93.81 36.9 91.55"/><path d="M39.88,99.05l1-3.12h4.48l1,3.09,2.77,0L44.9,85.88l-3.44,0,0,0L37.14,99.05ZM43.15,89l1.51,4.69h-3Z"/><path d="M66.52,90.39v8.67h8.74v-1.8h-6V95.49h6V90.38Zm6,3.47H69.31V92.05H72.5Z"/><polygon points="85.59 93.89 80.42 93.89 80.42 92.02 85.46 92.02 85.45 90.38 77.63 90.39 77.64 95.56 82.81 95.55 82.81 97.42 77.69 97.42 77.7 99.05 85.6 99.05 85.59 93.89"/><polygon points="96.52 99.05 96.52 90.37 90.7 90.37 90.7 86.55 87.91 86.56 87.92 99.05 90.71 99.05 90.7 92.63 93.73 92.63 93.73 99.05 96.52 99.05"/><polygon points="63.8 99.05 63.78 85.67 61.19 85.69 57.38 89.5 53.58 85.69 50.97 85.69 50.99 99.07 53.42 99.05 53.4 88.92 57.38 92.9 61.37 88.92 61.37 99.07 63.8 99.05"/></g></g></svg>