<svg xmlns="http://www.w3.org/2000/svg" xmlns:xlink="http://www.w3.org/1999/xlink" viewBox="0 0 107.86 96.09"><defs><style>.cls-1{fill:url(#未命名的渐变_2);}</style><linearGradient id="未命名的渐变_2" x1="33.63" y1="19.67" x2="48.35" y2="19.67" gradientUnits="userSpaceOnUse"><stop offset="0" stop-color="#0074e1" stop-opacity="0"/><stop offset="0.19" stop-color="#0074e1" stop-opacity="0.23"/><stop offset="0.48" stop-color="#0074e1" stop-opacity="0.56"/><stop offset="0.72" stop-color="#0074e1" stop-opacity="0.8"/><stop offset="0.9" stop-color="#0074e1" stop-opacity="0.94"/><stop offset="1" stop-color="#0074e1"/></linearGradient></defs><title>资源 54</title><g id="图层_2" data-name="图层 2"><g id="图层_1-2" data-name="图层 1"><path d="M53.22,39.33a9.35,9.35,0,0,1,0-4.7H28.62a8.27,8.27,0,0,1,.18,1.66,8.85,8.85,0,0,1-.55,3Z"/><path d="M71.89,34.63a9.35,9.35,0,0,1,0,4.7h6.64v-4.7Z"/><path d="M52.5,17.31a12.17,12.17,0,0,1,0,4.71H78.61V17.31Z"/><polygon points="36.17 4.75 36.17 0 25.61 0 25.61 56.64 82.25 56.64 82.25 0 48.99 0 48.99 4.75 77.5 4.75 77.5 51.89 30.36 51.89 30.36 4.75 36.17 4.75"/><circle class="cls-1" cx="40.99" cy="19.67" r="7.36"/><circle cx="62.55" cy="36.98" r="6.43"/><polygon points="10.75 93.88 10.74 86.11 2.79 86.11 2.79 83.03 10.71 83.03 10.71 80.72 0 80.73 0.01 88.5 7.96 88.5 7.96 91.57 0.02 91.57 0.02 93.88 10.75 93.88"/><path d="M13.08,80.78V93.9H24.83V80.77Zm9,10.86H15.87V83H22Z"/><polygon points="36.9 86.41 29.92 86.42 29.92 82.95 37.13 82.95 37.13 80.69 27.13 80.7 27.14 93.91 29.93 93.91 29.92 88.67 36.91 88.67 36.9 86.41"/><path d="M44.9,80.74l-3.44,0,0,0L37.14,93.91h2.74l1-3.12h4.48l1,3.09,2.77,0Zm-3.26,7.8,1.51-4.69,1.51,4.69Z"/><polygon points="51.18 80.94 51.19 93.92 62.19 93.92 62.18 91.66 53.97 91.67 53.97 83.19 62.19 83.19 62.18 80.93 51.18 80.94"/><path d="M64.59,94h8.68V85.31H64.59Zm2.78-6.44h3.11v4.18H67.37Z"/><polygon points="84 94 83.99 85.36 75.61 85.36 75.62 94.01 78.41 94 78.4 87.62 81.21 87.62 81.21 94.01 84 94"/><polygon points="91.9 85.27 90.09 85.28 90.09 83.27 91.81 83.27 91.8 81.01 87.3 81.02 87.31 85.28 85.91 85.28 85.92 87.55 87 87.54 87.31 87.54 87.31 93.91 90.1 93.91 90.09 87.54 91.9 87.54 91.9 85.27"/><rect x="93.93" y="81.17" width="2.56" height="2.4" transform="translate(-0.22 0.25) rotate(-0.15)"/><polygon points="96.5 94.08 96.5 85.34 93.93 85.35 93.94 94.09 96.5 94.08"/><path d="M107.85,85.47h-9V92h6.2v1.8H98.88v2.27h9Zm-2.78,4.43h-3.42V87.62h3.42Z"/></g></g></svg>