<svg xmlns="http://www.w3.org/2000/svg" xmlns:xlink="http://www.w3.org/1999/xlink" viewBox="0 0 52.54 52.54"><defs><style>.cls-1{fill:url(#未命名的渐变_2);}</style><linearGradient id="未命名的渐变_2" x1="7.44" y1="18.24" x2="21.1" y2="18.24" gradientUnits="userSpaceOnUse"><stop offset="0" stop-color="#0074e1" stop-opacity="0"/><stop offset="0.19" stop-color="#0074e1" stop-opacity="0.23"/><stop offset="0.48" stop-color="#0074e1" stop-opacity="0.56"/><stop offset="0.72" stop-color="#0074e1" stop-opacity="0.8"/><stop offset="0.9" stop-color="#0074e1" stop-opacity="0.94"/><stop offset="1" stop-color="#0074e1"/></linearGradient></defs><title>资源 10</title><g id="图层_2" data-name="图层 2"><g id="图层_1-2" data-name="图层 1"><path d="M25.61,36.48a8.63,8.63,0,0,1,0-4.36H2.8A7.81,7.81,0,0,1,3,33.66a8.1,8.1,0,0,1-.51,2.82Z"/><path d="M42.93,32.12a8.63,8.63,0,0,1,0,4.36h6.16V32.12Z"/><path d="M24.94,16.06a10.91,10.91,0,0,1,0,4.36H49.16V16.06Z"/><polygon points="9.8 4.41 9.8 0 0 0 0 52.54 52.54 52.54 52.54 0 21.69 0 21.69 4.41 48.13 4.41 48.13 48.13 4.41 48.13 4.41 4.41 9.8 4.41"/><circle class="cls-1" cx="14.27" cy="18.24" r="6.83"/><circle cx="34.27" cy="34.3" r="5.96"/></g></g></svg>