<svg xmlns="http://www.w3.org/2000/svg" xmlns:xlink="http://www.w3.org/1999/xlink" viewBox="0 0 53.61 62"><defs><style>.cls-1{fill:url(#未命名的渐变_2);}</style><linearGradient id="未命名的渐变_2" x1="26.83" y1="15.36" x2="26.83" y2="61.51" gradientUnits="userSpaceOnUse"><stop offset="0" stop-color="#0074e1" stop-opacity="0"/><stop offset="0.19" stop-color="#0074e1" stop-opacity="0.23"/><stop offset="0.48" stop-color="#0074e1" stop-opacity="0.56"/><stop offset="0.72" stop-color="#0074e1" stop-opacity="0.8"/><stop offset="0.9" stop-color="#0074e1" stop-opacity="0.94"/><stop offset="1" stop-color="#0074e1"/></linearGradient></defs><title>资源 3</title><g id="图层_2" data-name="图层 2"><g id="图层_1-2" data-name="图层 1"><polygon class="cls-1" points="48.23 17.06 26.38 28.07 0.04 15.62 0.04 46.61 26.03 61.51 53.62 46.64 53.62 15.36 48.23 17.06"/><path d="M26.79,31.34a1,1,0,0,0-.44.11L.13,46.34a.25.25,0,0,0-.13.22.25.25,0,0,0,.13.23L26.34,61.88a.9.9,0,0,0,.9,0L53.45,46.79a.25.25,0,0,0,.13-.23.25.25,0,0,0-.13-.22L27.23,31.45A1,1,0,0,0,26.79,31.34ZM43.35,45.81a.91.91,0,0,1,.47.78.89.89,0,0,1-.46.79l-16.1,9.27a.9.9,0,0,1-.47.13.84.84,0,0,1-.46-.13h0l-16.1-9.27a.9.9,0,0,1,0-1.57l16.1-9.15a.94.94,0,0,1,.92,0Z"/><path d="M26.35,30.55a.92.92,0,0,0,.88,0L53.45,15.66a.25.25,0,0,0,.13-.22.25.25,0,0,0-.13-.23L27.24.12a.9.9,0,0,0-.9,0L22.23,2.49,43.36,14.62a.89.89,0,0,1,.46.79.91.91,0,0,1-.47.78l-16.1,9.15a.94.94,0,0,1-.92,0l-16.1-9.15a.9.9,0,0,1,0-1.57l9.65-5.56L15.34,6.45.13,15.21a.25.25,0,0,0-.13.23.25.25,0,0,0,.13.22Z"/></g></g></svg>