<svg xmlns="http://www.w3.org/2000/svg" xmlns:xlink="http://www.w3.org/1999/xlink" viewBox="0 0 55.78 61.94"><defs><style>.cls-1{fill:url(#未命名的渐变_2);}</style><linearGradient id="未命名的渐变_2" x1="47.5" y1="49.44" x2="34" y2="26.05" gradientUnits="userSpaceOnUse"><stop offset="0" stop-color="#0074e1" stop-opacity="0"/><stop offset="0.19" stop-color="#0074e1" stop-opacity="0.23"/><stop offset="0.48" stop-color="#0074e1" stop-opacity="0.56"/><stop offset="0.72" stop-color="#0074e1" stop-opacity="0.8"/><stop offset="0.9" stop-color="#0074e1" stop-opacity="0.94"/><stop offset="1" stop-color="#0074e1"/></linearGradient></defs><title>资源 2</title><g id="图层_2" data-name="图层 2"><g id="图层_1-2" data-name="图层 1"><polygon class="cls-1" points="28.4 29.75 28.48 60.42 53.03 45.8 53.02 15.06 28.4 29.75"/><rect x="38.1" y="25.71" width="2.57" height="24.1" transform="translate(-13.07 52.79) rotate(-59.77)"/><rect x="2.65" y="29.81" width="50.59" height="2.57" transform="translate(-11.84 18.27) rotate(-30.18)"/><rect x="26.67" y="5.31" width="2.57" height="51.67"/><circle cx="27.95" cy="30.85" r="7.58"/><circle cx="3.5" cy="45.28" r="3.5"/><circle cx="52.28" cy="45.5" r="3.5"/><circle cx="52.28" cy="16.5" r="3.5"/><circle cx="27.95" cy="3.5" r="3.5"/><circle cx="27.95" cy="58.44" r="3.5"/><path d="M54.59,45.79s0-.08,0-.12l0-29.95a.84.84,0,0,0-.43-.74L28.38.18a.88.88,0,0,0-.85,0l-19.18,11A2.22,2.22,0,0,0,10.56,15L28,5l22.2,12.75V43.62L28,56.59l-22.21-13V24.46a2.21,2.21,0,1,0-4.42,0V45.67a.28.28,0,0,0,0,.09h0a.85.85,0,0,0,.42.64L27.53,61.46a.83.83,0,0,0,.86,0L54.17,46.41A.87.87,0,0,0,54.59,45.79Z"/></g></g></svg>