<svg xmlns="http://www.w3.org/2000/svg" xmlns:xlink="http://www.w3.org/1999/xlink" viewBox="0 0 53.45 61.71"><defs><style>.cls-1{fill:url(#未命名的渐变_2);}</style><linearGradient id="未命名的渐变_2" x1="2.73" y1="17.32" x2="50.69" y2="17.32" gradientUnits="userSpaceOnUse"><stop offset="0" stop-color="#0074e1" stop-opacity="0"/><stop offset="0.19" stop-color="#0074e1" stop-opacity="0.23"/><stop offset="0.48" stop-color="#0074e1" stop-opacity="0.56"/><stop offset="0.72" stop-color="#0074e1" stop-opacity="0.8"/><stop offset="0.9" stop-color="#0074e1" stop-opacity="0.94"/><stop offset="1" stop-color="#0074e1"/></linearGradient></defs><title>资源 1</title><g id="图层_2" data-name="图层 2"><g id="图层_1-2" data-name="图层 1"><polygon class="cls-1" points="50.69 17.41 26.71 3.41 26.71 3.41 2.73 17.41 26.71 31.23 26.71 31.23 50.69 17.41"/><path d="M0,15.47v31L26.3,61.59a.88.88,0,0,0,.86,0L48.27,49.44l-4.44-2.57L29.14,55.32l.24-25.6-22.64-13L26.73,5,49,18V37.93l4.44,2.56v-25L27.16.11a.9.9,0,0,0-.87,0Zm24.05,17.3-.2,22.29L4.46,43.93l0-22.45Z"/></g></g></svg>