<svg xmlns="http://www.w3.org/2000/svg" xmlns:xlink="http://www.w3.org/1999/xlink" viewBox="0 0 54.33 63"><defs><style>.cls-1{fill:url(#未命名的渐变_2);}</style><linearGradient id="未命名的渐变_2" x1="1.65" y1="17.85" x2="51.57" y2="17.85" gradientUnits="userSpaceOnUse"><stop offset="0" stop-color="#0074e1" stop-opacity="0"/><stop offset="0.19" stop-color="#0074e1" stop-opacity="0.23"/><stop offset="0.48" stop-color="#0074e1" stop-opacity="0.56"/><stop offset="0.72" stop-color="#0074e1" stop-opacity="0.8"/><stop offset="0.9" stop-color="#0074e1" stop-opacity="0.94"/><stop offset="1" stop-color="#0074e1"/></linearGradient></defs><title>资源 5</title><g id="图层_2" data-name="图层 2"><g id="图层_1-2" data-name="图层 1"><polygon class="cls-1" points="27.19 1.46 51.56 17.21 10.6 34.24 1.65 18.4 27.19 1.46"/><rect x="27.42" y="1.38" width="1.74" height="50.75" transform="translate(-9.03 37.86) rotate(-59.98)"/><polygon points="14.64 52.13 50.95 15.57 52.15 16.84 15.84 53.4 14.64 52.13"/><rect x="26.3" y="3.16" width="1.74" height="56.62"/><polygon points="0.96 36.97 51.06 15.55 51.55 17.23 1.45 38.64 0.96 36.97"/><rect x="13.35" y="17.26" width="1.74" height="47.06" transform="translate(-18.43 12.51) rotate(-29.88)"/><polygon points="0.02 15.62 0 47.12 27.16 63 50.44 49.42 45.93 46.81 27.16 57.76 4.53 44.53 4.55 18.24 27.18 5.22 49.8 18.22 49.83 40.21 54.33 42.81 54.33 15.6 27.18 0 0.02 15.62"/><circle cx="36.55" cy="31.39" r="2.15"/><circle cx="27.19" cy="26.5" r="2.15"/><circle cx="18.95" cy="49.09" r="2.15"/><circle cx="27.19" cy="40.78" r="2.15"/></g></g></svg>