<svg xmlns="http://www.w3.org/2000/svg" xmlns:xlink="http://www.w3.org/1999/xlink" viewBox="0 0 56.73 56.73"><defs><style>.cls-1{fill:url(#未命名的渐变_2);}</style><linearGradient id="未命名的渐变_2" x1="13.57" y1="28.37" x2="43.17" y2="28.37" gradientUnits="userSpaceOnUse"><stop offset="0" stop-color="#0074e1" stop-opacity="0"/><stop offset="0.19" stop-color="#0074e1" stop-opacity="0.23"/><stop offset="0.48" stop-color="#0074e1" stop-opacity="0.56"/><stop offset="0.72" stop-color="#0074e1" stop-opacity="0.8"/><stop offset="0.9" stop-color="#0074e1" stop-opacity="0.94"/><stop offset="1" stop-color="#0074e1"/></linearGradient></defs><title>资源 4</title><g id="图层_2" data-name="图层 2"><g id="图层_1-2" data-name="图层 1"><circle class="cls-1" cx="28.37" cy="28.37" r="14.8"/><path d="M0,28.37A28.37,28.37,0,1,0,53.94,16.08L50.4,19.62A23.74,23.74,0,0,1,37.59,50.2a23.67,23.67,0,0,1-26-5.08A23.71,23.71,0,0,1,19.14,6.53a23.81,23.81,0,0,1,18-.18l3.54-3.54A28.38,28.38,0,0,0,0,28.37Z"/><path d="M26.2,26.2a3.09,3.09,0,0,0,0,4.36,3.15,3.15,0,0,0,4.36,0l20-20a3.09,3.09,0,0,0-4.36-4.37Z"/></g></g></svg>