<svg xmlns="http://www.w3.org/2000/svg" xmlns:xlink="http://www.w3.org/1999/xlink" viewBox="0 0 54.03 61.83"><defs><style>.cls-1{fill:url(#未命名的渐变_2);}</style><linearGradient id="未命名的渐变_2" x1="12.42" y1="30.92" x2="41.61" y2="30.92" gradientUnits="userSpaceOnUse"><stop offset="0" stop-color="#0074e1" stop-opacity="0"/><stop offset="0.19" stop-color="#0074e1" stop-opacity="0.23"/><stop offset="0.48" stop-color="#0074e1" stop-opacity="0.56"/><stop offset="0.72" stop-color="#0074e1" stop-opacity="0.8"/><stop offset="0.9" stop-color="#0074e1" stop-opacity="0.94"/><stop offset="1" stop-color="#0074e1"/></linearGradient></defs><title>资源 9</title><g id="图层_2" data-name="图层 2"><g id="图层_1-2" data-name="图层 1"><path d="M49.53,24.58a.13.13,0,0,0,.09,0l4.21,0a.13.13,0,0,0,.13-.13L54,15.86a.87.87,0,0,0-.43-.75L27.48.11a.88.88,0,0,0-.86,0L.44,15.16a.86.86,0,0,0-.44.75v8.36a.13.13,0,0,0,.13.13l4.21,0a.14.14,0,0,0,.13-.13V18.48a.84.84,0,0,1,.42-.73L26.64,5.26a.84.84,0,0,1,.83,0L49.12,17.69a.84.84,0,0,1,.42.73l0,6.07A.13.13,0,0,0,49.53,24.58Z"/><path d="M4.34,37.21l-4.21,0a.1.1,0,0,0-.09,0,.1.1,0,0,0,0,.09v8.55a.85.85,0,0,0,.43.75L26.34,61.71a.87.87,0,0,0,.87,0l26.16-15A.86.86,0,0,0,53.8,46l.07-8.41a.13.13,0,0,0-.13-.13l-4.21,0a.13.13,0,0,0-.13.13l0,5.84a.84.84,0,0,1-.42.73L27.21,56.56a.84.84,0,0,1-.84,0L4.88,44.05a.86.86,0,0,1-.41-.73v-6A.13.13,0,0,0,4.34,37.21Z"/><path class="cls-1" d="M12.75,34a13.66,13.66,0,0,0,2,4.75,14.6,14.6,0,0,0,15.43,6.39,13.66,13.66,0,0,0,4.75-2,14.61,14.61,0,0,0,6.39-15.43,13.66,13.66,0,0,0-2-4.75A14.57,14.57,0,0,0,27,16.32a15.47,15.47,0,0,0-3.15.33,13.66,13.66,0,0,0-4.75,2A14.61,14.61,0,0,0,12.75,34ZM28.33,20.88a10.17,10.17,0,0,1,8.72,8.72A10.13,10.13,0,0,1,27,41,9.72,9.72,0,0,1,25.7,41a10.12,10.12,0,0,1-5.84-17.19A10.07,10.07,0,0,1,28.33,20.88Z"/><path d="M47.28,29.62H41.54a14.94,14.94,0,0,1,0,2.59h5.73a1.3,1.3,0,0,0,0-2.59Z"/><path d="M12.48,29.62H6.75a1.3,1.3,0,0,0,0,2.59h5.74A14,14,0,0,1,12.48,29.62Z"/><path d="M37.05,29.6a8.65,8.65,0,0,0-.25-1.27H17.24a10.19,10.19,0,0,0-.26,3.9,8.65,8.65,0,0,0,.25,1.27H36.79A10.19,10.19,0,0,0,37.05,29.6Z"/></g></g></svg>