<svg xmlns="http://www.w3.org/2000/svg" xmlns:xlink="http://www.w3.org/1999/xlink" viewBox="0 0 55.44 63.72"><defs><style>.cls-1{fill:url(#未命名的渐变_2);}</style><linearGradient id="未命名的渐变_2" x1="26.62" y1="29.37" x2="37.9" y2="29.37" gradientUnits="userSpaceOnUse"><stop offset="0" stop-color="#0074e1" stop-opacity="0"/><stop offset="0.19" stop-color="#0074e1" stop-opacity="0.23"/><stop offset="0.48" stop-color="#0074e1" stop-opacity="0.56"/><stop offset="0.72" stop-color="#0074e1" stop-opacity="0.8"/><stop offset="0.9" stop-color="#0074e1" stop-opacity="0.94"/><stop offset="1" stop-color="#0074e1"/></linearGradient></defs><title>资源 11</title><g id="图层_2" data-name="图层 2"><g id="图层_1-2" data-name="图层 1"><path d="M55,15.64,27.76,0,0,16v9.23l4.6,0V18.61l.18-.11,23-13.2.18.1L50.83,18.55V45.14L27.49,58.41l-.18-.1L4.6,45.08V38.31l-4.6,0v9.43l27.47,16,28-15.9V16.41A.89.89,0,0,0,55,15.64Z"/><path d="M40.74,31a8.61,8.61,0,0,1-1.88,3.94l13.62,7.7L53.05,38Z"/><path d="M23.69,30.42,20.3,32.3,2.77,21.93,0,25.25,20.31,38l5.42-3A8.53,8.53,0,0,1,23.69,30.42Z"/><circle class="cls-1" cx="32.26" cy="29.37" r="5.64"/></g></g></svg>