<svg xmlns="http://www.w3.org/2000/svg" xmlns:xlink="http://www.w3.org/1999/xlink" viewBox="0 0 91.14 99.07"><defs><style>.cls-1{fill:url(#未命名的渐变_2);}</style><linearGradient id="未命名的渐变_2" x1="54.55" y1="38.92" x2="22.65" y2="38.92" gradientUnits="userSpaceOnUse"><stop offset="0" stop-color="#0074e1" stop-opacity="0"/><stop offset="0.19" stop-color="#0074e1" stop-opacity="0.23"/><stop offset="0.48" stop-color="#0074e1" stop-opacity="0.56"/><stop offset="0.72" stop-color="#0074e1" stop-opacity="0.8"/><stop offset="0.9" stop-color="#0074e1" stop-opacity="0.94"/><stop offset="1" stop-color="#0074e1"/></linearGradient></defs><title>资源 51</title><g id="图层_2" data-name="图层 2"><g id="图层_1-2" data-name="图层 1"><polygon points="10.75 98.92 10.74 91.15 2.79 91.16 2.79 88.08 10.71 88.08 10.71 85.77 0 85.78 0.01 93.55 7.96 93.54 7.96 96.62 0.02 96.62 0.02 98.92 10.75 98.92"/><path d="M13.08,85.82V98.94H24.83V85.82Zm9,10.86H15.87v-8.6H22Z"/><polygon points="36.9 91.45 29.92 91.46 29.92 88 37.13 88 37.13 85.74 27.13 85.74 27.14 98.96 29.93 98.95 29.92 93.72 36.91 93.72 36.9 91.45"/><path d="M44.9,85.78l-3.44,0,0,0L37.14,99h2.74l1-3.11h4.48l1,3.09,2.77,0Zm-3.26,7.8,1.51-4.68,1.51,4.68Z"/><path d="M53.51,99l1-3.11H59l1,3.09,2.77,0L58.54,85.78l-3.44,0-.05,0L50.78,99Zm3.28-10,1.51,4.68h-3Z"/><polygon points="64.77 90.39 64.78 99.03 73.33 99.03 73.33 96.77 67.56 96.78 67.56 92.65 73.33 92.65 73.33 90.38 64.77 90.39"/><polygon points="80.93 99.06 80.93 96.8 79.46 96.81 79.46 92.53 81.08 92.53 81.07 90.27 79.46 90.28 79.46 87.59 76.67 87.6 76.67 90.28 75.23 90.28 75.24 92.54 76.36 92.53 76.67 92.53 76.67 99.07 80.93 99.06"/><polygon points="91.14 99.02 91.13 93.85 85.96 93.86 85.96 91.99 90.99 91.99 90.99 90.35 83.17 90.36 83.17 95.53 88.35 95.52 88.35 97.39 83.23 97.39 83.24 99.02 91.14 99.02"/><polygon points="22.66 49.01 22.66 59.66 68.48 59.66 68.48 0 22.66 0 22.66 32.05 27.69 32.05 27.69 5.03 63.45 5.03 63.45 54.63 27.69 54.63 27.69 49.01 22.66 49.01"/><rect x="31.28" y="8.62" width="5.03" height="5.03"/><rect x="31.28" y="17.25" width="5.03" height="5.03"/><polygon class="cls-1" points="34.22 42.42 27.1 35.3 22.66 39.74 34.22 51.31 54.55 30.97 50.11 26.53 34.22 42.42"/></g></g></svg>